<svg xmlns="http://www.w3.org/2000/svg" viewBox="0 0 32 32" width="64" height="64">
  <!-- 木盾 - 棕色木盾 -->
  <!-- 盾牌主体 -->
  <rect x="6" y="4" width="20" height="20" fill="#8a5028"/>
  <rect x="5" y="5" width="22" height="18" fill="#9a5a30"/>
  <rect x="5" y="6" width="22" height="16" fill="#9a5a30"/>
  <!-- 下半圆 -->
  <rect x="6" y="22" width="20" height="3" fill="#8a5028"/>
  <rect x="7" y="25" width="18" height="2" fill="#8a5028"/>
  <rect x="9" y="27" width="14" height="2" fill="#7a4520"/>
  <rect x="12" y="29" width="8" height="2" fill="#6a3a18"/>
  <!-- 边框 -->
  <rect x="5" y="4" width="22" height="2" fill="#6a3a18"/>
  <rect x="5" y="4" width="2" height="22" fill="#6a3a18"/>
  <rect x="25" y="4" width="2" height="22" fill="#6a3a18"/>
  <!-- 中心装饰 -->
  <rect x="13" y="10" width="6" height="8" fill="#c87838"/>
  <rect x="14" y="9" width="4" height="10" fill="#d08848"/>
  <rect x="14" y="10" width="4" height="8" fill="#e09858"/>
  <!-- 高光 -->
  <rect x="7" y="6" width="5" height="4" fill="#c07838"/>
  <rect x="8" y="7" width="3" height="2" fill="#d08848"/>
</svg>
